<?xml version="1.0" ?>
<!DOCTYPE svg  PUBLIC '-//W3C//DTD SVG 1.1//EN'  'http://www.w3.org/Graphics/SVG/1.1/DTD/svg11.dtd'>
<!-- Uploaded to: SVG Repo, www.svgrepo.com, Generator: SVG Repo Mixer Tools -->
<svg width="800px" height="800px" viewBox="0 0 32 32" enable-background="new 0 0 32 32" version="1.1" xml:space="preserve" xmlns="http://www.w3.org/2000/svg" xmlns:xlink="http://www.w3.org/1999/xlink">
<g id="Home"/>
<g id="Print"/>
<g id="Mail"/>
<g id="Camera"/>
<g id="Video"/>
<g id="Film"/>
<g id="Message"/>
<g id="Telephone"/>
<g id="User"/>
<g id="File"/>
<g id="Folder"/>
<g id="Map"/>
<g id="Download"/>
<g id="Upload"/>
<g id="Video_Recorder"/>
<g id="Schedule"/>
<g id="Cart"/>
<g id="Setting"/>
<g id="Search"/>
<g id="Pencils"/>
<g id="Group"/>
<g id="Record"/>
<g id="Headphone"/>
<g id="Music_Player"/>
<g id="Sound_On"/>
<g id="Sound_Off"/>
<g id="Lock"/>
<g id="Lock_open"/>
<g id="Love"/>
<g id="Favorite"/>
<g id="Film_1_"/>
<g id="Music"/>
<g id="Puzzle"/>
<g id="Turn_Off"/>
<g id="Book"/>
<g id="Save"/>
<g id="Reload"/>
<g id="Trash"/>
<g id="Tag"/>
<g id="Link"/>
<g id="Like"/>
<g id="Bad">
<path d="M26,1H9.7H2C1.5,1,1,1.5,1,2v10v6.8c0,0.5,0.5,1,1,1h7.2l3.3,4.4c0.2,0.3,0.4,0.7,0.4,1.1v1.9   c0,2.1,1.7,3.8,3.8,3.8h1.4c2.1,0,3.8-1.7,3.8-3.8v-2.5c0-1.3-0.4-2.6-1.1-3.7L20,19.8h6c2.8,0,5-2.2,5-5V12V6C31,3.2,28.8,1,26,1z   " fill="#FFC10A"/>
<path d="M8.7,18.8V12V2c0-0.5,0.5-1,1-1H2C1.5,1,1,1.5,1,2v10v6.8c0,0.5,0.5,1,1,1h7.2l-0.3-0.4   C8.8,19.2,8.7,19,8.7,18.8z" fill="#673AB7"/>
</g>
<g id="Gallery"/>
<g id="Add"/>
<g id="Close"/>
<g id="Forward"/>
<g id="Back"/>
<g id="Buy"/>
<g id="Mac"/>
<g id="Laptop"/>
</svg>